<mxfile host="app.diagrams.net" modified="2023-04-12T13:52:01.758Z" agent="Mozilla/5.0 (Macintosh; Intel Mac OS X 10.15; rv:109.0) Gecko/20100101 Firefox/111.0" etag="wg78fQ2PTrM_5wLyJvLf" version="21.1.7" type="google">
  <diagram name="Pagina-1" id="5IOHQnBSul3iS9nk6zzD">
    <mxGraphModel grid="1" page="1" gridSize="10" guides="1" tooltips="1" connect="1" arrows="1" fold="1" pageScale="1" pageWidth="827" pageHeight="1169" math="0" shadow="0">
      <root>
        <mxCell id="0" />
        <mxCell id="1" parent="0" />
        <mxCell id="UuuK_7KN0N8lQrsiWqu5-1" style="edgeStyle=orthogonalEdgeStyle;rounded=0;orthogonalLoop=1;jettySize=auto;html=1;" edge="1" parent="1">
          <mxGeometry relative="1" as="geometry">
            <mxPoint x="400" y="160" as="targetPoint" />
            <mxPoint x="400" y="110" as="sourcePoint" />
          </mxGeometry>
        </mxCell>
        <mxCell id="UuuK_7KN0N8lQrsiWqu5-2" value="" style="edgeStyle=orthogonalEdgeStyle;rounded=0;orthogonalLoop=1;jettySize=auto;html=1;" edge="1" parent="1" source="UuuK_7KN0N8lQrsiWqu5-3" target="UuuK_7KN0N8lQrsiWqu5-7">
          <mxGeometry relative="1" as="geometry" />
        </mxCell>
        <mxCell id="UuuK_7KN0N8lQrsiWqu5-3" value="int prodotto=0" style="rounded=0;whiteSpace=wrap;html=1;" vertex="1" parent="1">
          <mxGeometry x="340" y="160" width="120" height="60" as="geometry" />
        </mxCell>
        <mxCell id="UuuK_7KN0N8lQrsiWqu5-4" value="" style="edgeStyle=orthogonalEdgeStyle;rounded=0;orthogonalLoop=1;jettySize=auto;html=1;" edge="1" parent="1" source="UuuK_7KN0N8lQrsiWqu5-5" target="UuuK_7KN0N8lQrsiWqu5-9">
          <mxGeometry relative="1" as="geometry" />
        </mxCell>
        <mxCell id="UuuK_7KN0N8lQrsiWqu5-5" value="double N = Mathrandom()*100" style="rounded=0;whiteSpace=wrap;html=1;" vertex="1" parent="1">
          <mxGeometry x="340" y="240" width="120" height="60" as="geometry" />
        </mxCell>
        <mxCell id="UuuK_7KN0N8lQrsiWqu5-6" value="" style="edgeStyle=orthogonalEdgeStyle;rounded=0;orthogonalLoop=1;jettySize=auto;html=1;" edge="1" parent="1" source="UuuK_7KN0N8lQrsiWqu5-7" target="UuuK_7KN0N8lQrsiWqu5-13">
          <mxGeometry relative="1" as="geometry" />
        </mxCell>
        <mxCell id="UuuK_7KN0N8lQrsiWqu5-7" value="N=(int)N" style="rounded=0;whiteSpace=wrap;html=1;" vertex="1" parent="1">
          <mxGeometry x="340" y="330" width="120" height="60" as="geometry" />
        </mxCell>
        <mxCell id="UuuK_7KN0N8lQrsiWqu5-8" value="" style="edgeStyle=orthogonalEdgeStyle;rounded=0;orthogonalLoop=1;jettySize=auto;html=1;" edge="1" parent="1" source="UuuK_7KN0N8lQrsiWqu5-9" target="UuuK_7KN0N8lQrsiWqu5-13">
          <mxGeometry relative="1" as="geometry" />
        </mxCell>
        <mxCell id="UuuK_7KN0N8lQrsiWqu5-9" value="N" style="shape=parallelogram;perimeter=parallelogramPerimeter;whiteSpace=wrap;html=1;fixedSize=1;" vertex="1" parent="1">
          <mxGeometry x="340" y="410" width="120" height="60" as="geometry" />
        </mxCell>
        <mxCell id="UuuK_7KN0N8lQrsiWqu5-10" value="" style="edgeStyle=orthogonalEdgeStyle;rounded=0;orthogonalLoop=1;jettySize=auto;html=1;" edge="1" parent="1" source="UuuK_7KN0N8lQrsiWqu5-13" target="UuuK_7KN0N8lQrsiWqu5-14">
          <mxGeometry relative="1" as="geometry" />
        </mxCell>
        <mxCell id="UuuK_7KN0N8lQrsiWqu5-11" style="edgeStyle=orthogonalEdgeStyle;rounded=0;orthogonalLoop=1;jettySize=auto;html=1;" edge="1" parent="1" source="UuuK_7KN0N8lQrsiWqu5-13">
          <mxGeometry relative="1" as="geometry">
            <mxPoint x="600" y="680" as="targetPoint" />
          </mxGeometry>
        </mxCell>
        <mxCell id="UuuK_7KN0N8lQrsiWqu5-12" value="F" style="edgeLabel;html=1;align=center;verticalAlign=middle;resizable=0;points=[];" connectable="0" vertex="1" parent="UuuK_7KN0N8lQrsiWqu5-11">
          <mxGeometry x="-0.6364" y="1" relative="1" as="geometry">
            <mxPoint as="offset" />
          </mxGeometry>
        </mxCell>
        <mxCell id="UuuK_7KN0N8lQrsiWqu5-13" value="&lt;div&gt;for(int i=1; i&amp;lt;=N;&lt;/div&gt;&lt;div&gt;i++&lt;br&gt;&lt;/div&gt;" style="shape=hexagon;perimeter=hexagonPerimeter2;whiteSpace=wrap;html=1;fixedSize=1;" vertex="1" parent="1">
          <mxGeometry x="340" y="505" width="120" height="80" as="geometry" />
        </mxCell>
        <mxCell id="UuuK_7KN0N8lQrsiWqu5-14" value="prodotto*=1" style="rounded=0;whiteSpace=wrap;html=1;" vertex="1" parent="1">
          <mxGeometry x="340" y="620" width="120" height="60" as="geometry" />
        </mxCell>
        <mxCell id="UuuK_7KN0N8lQrsiWqu5-15" value="" style="edgeStyle=orthogonalEdgeStyle;rounded=0;orthogonalLoop=1;jettySize=auto;html=1;" edge="1" parent="1" target="UuuK_7KN0N8lQrsiWqu5-18">
          <mxGeometry relative="1" as="geometry">
            <mxPoint x="600" y="740" as="sourcePoint" />
          </mxGeometry>
        </mxCell>
        <mxCell id="UuuK_7KN0N8lQrsiWqu5-16" value="o" style="text;html=1;align=center;verticalAlign=middle;resizable=0;points=[];autosize=1;strokeColor=none;fillColor=none;" vertex="1" parent="1">
          <mxGeometry x="425" y="385" width="30" height="30" as="geometry" />
        </mxCell>
        <mxCell id="UuuK_7KN0N8lQrsiWqu5-17" value="O" style="text;html=1;align=center;verticalAlign=middle;resizable=0;points=[];autosize=1;strokeColor=none;fillColor=none;" vertex="1" parent="1">
          <mxGeometry x="625" y="655" width="30" height="30" as="geometry" />
        </mxCell>
        <mxCell id="UuuK_7KN0N8lQrsiWqu5-18" value="End" style="ellipse;whiteSpace=wrap;html=1;" vertex="1" parent="1">
          <mxGeometry x="540" y="770" width="120" height="60" as="geometry" />
        </mxCell>
        <mxCell id="UuuK_7KN0N8lQrsiWqu5-19" value="Start" style="ellipse;whiteSpace=wrap;html=1;" vertex="1" parent="1">
          <mxGeometry x="340" y="30" width="120" height="80" as="geometry" />
        </mxCell>
        <mxCell id="UuuK_7KN0N8lQrsiWqu5-20" style="edgeStyle=orthogonalEdgeStyle;rounded=0;orthogonalLoop=1;jettySize=auto;html=1;entryX=0;entryY=0.5;entryDx=0;entryDy=0;" edge="1" parent="1">
          <mxGeometry relative="1" as="geometry">
            <Array as="points">
              <mxPoint x="240" y="650" />
              <mxPoint x="240" y="545" />
            </Array>
            <mxPoint x="340" y="650" as="sourcePoint" />
            <mxPoint x="340" y="545" as="targetPoint" />
          </mxGeometry>
        </mxCell>
        <mxCell id="UuuK_7KN0N8lQrsiWqu5-21" value="V" style="edgeLabel;html=1;align=center;verticalAlign=middle;resizable=0;points=[];" connectable="0" vertex="1" parent="UuuK_7KN0N8lQrsiWqu5-20">
          <mxGeometry x="0.5738" y="-1" relative="1" as="geometry">
            <mxPoint as="offset" />
          </mxGeometry>
        </mxCell>
        <mxCell id="UuuK_7KN0N8lQrsiWqu5-22" value="prodotto" style="shape=parallelogram;perimeter=parallelogramPerimeter;whiteSpace=wrap;html=1;fixedSize=1;" vertex="1" parent="1">
          <mxGeometry x="540" y="680" width="120" height="60" as="geometry" />
        </mxCell>
      </root>
    </mxGraphModel>
  </diagram>
</mxfile>
